<?xml version="1.0" encoding="UTF-8" standalone="no"?>
<svg width="465px" height="269px" viewBox="0 0 465 269" version="1.1" xmlns="http://www.w3.org/2000/svg" xmlns:xlink="http://www.w3.org/1999/xlink">
    <!-- Generator: Sketch 43 (38999) - http://www.bohemiancoding.com/sketch -->
    <title>g12</title>
    <desc>Created with Sketch.</desc>
    <defs></defs>
    <g id="Page-1" stroke="none" stroke-width="1" fill="none" fill-rule="evenodd">
        <g id="Elbowgrease_logo-01" transform="translate(0.000000, -1.000000)" fill-rule="nonzero" fill="#100F0D">
            <g id="g10" transform="translate(232.500000, 135.250000) scale(-1, 1) rotate(-180.000000) translate(-232.500000, -135.250000) translate(0.000000, 0.750000)">
                <g id="g12" transform="translate(0.750000, 0.000000)">
                    <path d="M440.50375,58.4325 C435.03,58.4325 428.4675,59.68125 424.09,62.9675 C416.89875,68.28 412.98875,76.5675 412.20625,86.88125 L458.1675,86.88125 C461.295,111.74125 447.5375,124.87375 427.37125,124.87375 C415.335,124.87375 405.64,120.96875 398.14,113.1475 C391.8825,106.42375 387.505,96.26625 387.505,85.475 C387.505,61.87 401.105,42.01875 427.52875,42.01875 C441.59625,42.01875 452.23,47.96 459.26375,57.34 L460.35625,63.12 C453.79375,60.30625 447.07,58.4325 440.50375,58.4325 M417.68125,112.5225 C419.3975,114.245 421.58625,115.02625 423.46125,115.02625 C430.0275,115.02625 435.65375,109.395 435.1875,97.51625 L412.20625,95.6375 C412.36375,103.1425 414.23875,109.085 417.68125,112.5225" id="path14"></path>
                    <path d="M382.75625,70.31375 C382.75625,77.03375 381.1925,86.4175 362.59,93.60875 L357.745,95.4825 C345.70375,100.17 342.42375,103.29875 342.42375,108.45875 C342.42375,112.52125 346.01875,115.965 353.525,115.965 C357.43,115.965 360.71625,115.335 363.53,113.46125 C366.18625,111.5875 367.75,107.67625 368.99875,102.98375 L370.40625,97.6725 L376.815,97.6725 C377.44,106.27 377.755,114.8675 376.3475,122.99875 C367.75,123.155 362.59,124.5625 355.08375,124.5625 C332.57125,124.5625 321.475,111.5875 321.475,97.205 C321.475,88.91625 325.2275,79.37875 339.92,73.595 L344.9225,71.72125 C358.055,66.71875 360.71625,63.4375 360.71625,59.37 C360.71625,55.465 357.2725,51.86875 349.4575,51.86875 C342.58125,51.86875 338.04625,52.65125 335.075,54.525 C331.94625,56.39875 330.6975,58.58875 329.7575,62.96625 L328.19875,70.31375 L321.475,70.31375 C320.225,61.71625 320.3775,52.80375 321.475,44.52125 C329.7575,43.58125 340.86,42.175 348.5175,42.175 C374.78375,42.175 382.75625,59.2125 382.75625,70.31375" id="path16"></path>
                    <path d="M304.59,77.1925 L304.59,97.51625 C304.59,114.3975 294.58625,124.71625 274.57625,124.71625 C261.91125,124.71625 251.125,121.58875 244.8725,116.59125 C240.6525,113.305 238.93125,109.8675 238.93125,105.3325 C238.93125,102.36125 240.18,97.82625 243.30875,93.91625 C256.59875,107.05375 263.6325,110.1775 269.7275,110.1775 C276.13625,110.1775 279.57875,105.3325 279.57875,92.67125 L279.57875,88.76125 C251.125,85.16625 236.9,74.68875 236.9,61.08875 C236.9,50.15 245.8075,41.86125 258.7825,41.86125 C269.885,41.86125 277.8575,47.95625 281.13875,53.8975 C283.95125,46.70625 291.1475,42.17625 298.33875,42.17625 C304.27625,42.17625 310.5325,44.5175 315.22,47.80375 L317.40875,52.33375 C302.86875,54.8375 304.59,62.33875 304.59,77.1925 M279.57875,58.275 C278.015,57.18375 275.66875,56.24375 272.6975,56.24375 C265.82125,56.24375 259.88,60.62125 259.88,66.40625 C259.88,72.0325 265.04,77.35 279.57875,79.06625 L279.57875,58.275" id="path18"></path>
                    <path d="M213.04125,58.275 C207.5675,58.275 201.00625,59.525 196.6275,62.81 C189.4375,68.1225 185.52625,76.41 184.745,86.725 L230.705,86.725 C233.8325,111.58375 220.075,124.71625 199.90875,124.71625 C187.8725,124.71625 178.17875,120.80625 170.6775,112.99125 C164.42,106.26625 160.0425,96.11 160.0425,85.31875 C160.0425,61.71375 173.6425,41.86125 200.06625,41.86125 C214.13375,41.86125 224.7675,47.80375 231.80125,57.18375 L232.89375,62.9625 C226.3325,60.14875 219.60875,58.275 213.04125,58.275 M190.21875,112.36625 C191.93625,114.0875 194.125,114.87 195.99875,114.87 C202.565,114.87 208.19625,109.2375 207.725,97.35875 L184.745,95.48 C184.9025,102.98625 186.77625,108.9275 190.21875,112.36625" id="path20"></path>
                    <path d="M159.5925,113.15 C159.5925,120.965 155.0575,124.71875 149.8975,124.71875 C143.33625,124.71875 136.455,120.65 131.61,105.48625 L131.61,123.62125 L129.73125,123.62125 C120.19875,123.62125 108.63,122.3725 96.43625,118.15125 L96.43625,112.835 L102.0625,111.4275 C105.03375,110.64625 106.12625,109.39625 106.28375,105.95875 C106.44125,102.205 106.44125,93.45 106.44125,85.7925 L106.44125,76.4075 C106.44125,68.28125 106.44125,60.9325 106.28375,56.555 C106.12625,53.1175 105.96875,52.1775 102.9975,51.2425 L97.8425,49.52125 L97.8425,43.58 L142.23875,43.58 L142.23875,49.67875 L135.83,51.395 C132.85875,52.1775 132.70125,53.1175 132.54375,56.555 C132.39125,60.9325 132.39125,68.28125 132.39125,76.4075 L132.39125,100.95125 C134.4225,102.205 136.92625,102.83 140.2075,102.83 C143.8025,102.83 149.2725,101.42375 154.905,98.4525 C157.7175,103.14 159.5925,108.92875 159.5925,113.15" id="path22"></path>
                    <path d="M90.8075,120.34125 L65.79625,120.34125 C60.32125,123.46375 52.97375,125.02875 45.005,125.02875 C24.681125,125.02875 9.669375,112.835 9.669375,94.075 C9.669375,80.3175 19.36375,70.6275 31.872125,67.0325 C22.17725,64.21875 15.610875,57.18 15.610875,49.52125 C15.610875,43.7375 18.424375,39.98375 22.80225,37.485 C9.044375,35.29625 2.01075,27.79125 2.01075,19.8175 C2.01075,5.12125 18.8965,0.11875 33.746125,0.11875 C65.63875,0.11875 87.83625,21.0675 87.83625,35.92125 C87.83625,45.30125 82.21,54.21375 64.85625,54.83875 L47.50375,55.46375 C42.5015,55.77375 33.436,56.0875 33.436,61.715 C33.436,63.12125 34.213375,65.31 35.31,66.0925 C37.65675,65.625 40.15525,65.4675 42.811,65.4675 C65.17125,65.4675 79.55375,76.4075 79.55375,95.79625 C79.55375,99.3925 78.3,104.39375 75.17625,110.02125 L90.025,109.71125 L90.8075,120.34125 L90.8075,120.34125 Z M41.409125,32.95 L55.94375,32.32625 C67.5125,31.85375 69.39125,27.79125 69.39125,25.135 C69.39125,19.5075 60.63625,11.845 43.751,11.845 C28.743625,11.845 18.8965,16.5375 18.8965,24.82 C18.8965,28.2575 20.61325,32.01125 27.494625,35.29625 C31.714875,33.89 36.559625,33.265 41.409125,32.95 L41.409125,32.95 Z M44.5325,74.69 C37.65675,74.69 33.121625,81.41375 33.121625,95.79625 C33.121625,108.4575 37.184125,115.80625 44.21775,115.80625 C50.6325,115.80625 56.10125,109.23875 56.10125,94.075 C56.10125,82.82125 51.41375,74.69 44.5325,74.69 L44.5325,74.69 Z" id="path24"></path>
                    <path d="M463.68875,218.42625 L463.68875,225.46 L427.265,225.46 L427.265,219.2075 L435.54875,216.70875 C439.92625,215.455 440.39375,213.42375 439.45875,209.8275 L428.9825,168.865 L404.91,225.775 L395.3725,225.775 L377.8625,168.865 L362.54,212.17375 C361.44875,215.3025 361.44875,216.70875 365.82625,217.64375 L370.04625,218.58375 L370.04625,225.46 L326.9,225.46 L326.9,218.42625 L329.55625,217.80125 C332.36875,217.01875 332.68375,215.77 333.77625,213.11375 L357.38125,155.4225 C360.19375,148.38875 360.50875,146.6675 361.60125,143.07125 C373.3275,146.3575 378.80125,148.70375 382.7075,158.55125 L394.9,188.57 L408.9725,154.955 C411.62875,148.38875 412.10125,146.3575 412.72625,143.07125 C423.67,144.95125 430.07875,148.23125 433.5175,156.6775 L454.6225,210.925 C456.81125,216.395 458.06125,217.01875 460.56,217.64375 L463.68875,218.42625 L463.68875,218.42625 Z M303.51125,182.9375 C303.51125,167.62125 298.50875,156.3625 289.59625,156.3625 C278.6575,156.3625 273.1825,170.2775 273.1825,187.4725 C273.1825,200.44875 275.68125,214.6775 287.25,214.6775 C292.2575,214.6775 296.4775,212.17375 299.44875,206.2325 C301.9475,201.3875 303.51125,194.19625 303.51125,182.9375 L303.51125,182.9375 Z M330.55875,187.63 C330.55875,195.44625 328.5225,203.57625 324.775,209.67125 C317.89375,220.93 306.64,226.86625 290.85125,226.86625 C280.68875,226.86625 271.77625,224.3675 264.9,219.8325 C252.70125,211.7075 246.14,199.82375 246.14,183.41 C246.14,159.9575 261.14625,144.16875 287.88,144.16875 C311.8,144.16875 330.55875,159.9575 330.55875,187.63 L330.55875,187.63 Z M211.26125,183.72 C211.26125,172.9325 209.0675,164.645 204.38,160.5825 C202.19125,158.55125 198.75375,156.82875 194.06625,156.82875 C190.6225,156.82875 186.0875,157.61125 181.5575,159.3325 C182.1825,161.67875 182.4925,165.4275 182.4925,170.74375 L182.4925,207.79625 C185.15375,209.67125 188.74875,210.7675 192.81125,210.7675 C203.75625,210.7675 211.26125,200.44875 211.26125,183.72 L211.26125,183.72 Z M238.305,190.12875 C238.305,210.1425 225.17125,226.86625 206.41625,226.86625 C197.0325,226.86625 187.5,222.64625 182.4925,213.73875 L182.4925,268.61125 L179.99375,268.61125 C170.45625,268.61125 158.73,267.3575 146.69375,263.29375 L146.69375,257.9775 L152.16375,256.57 C155.2925,255.78875 156.38375,254.53875 156.54125,250.94375 C156.69875,247.3475 156.69875,238.5925 156.69875,230.93375 L156.69875,164.1775 C156.69875,152.60875 154.9825,147.76375 154.9825,147.76375 C164.0475,145.575 178.115,143.85375 188.43375,143.85375 C203.28875,143.85375 213.6075,146.9825 221.41875,152.60875 C231.895,160.2725 238.305,174.03 238.305,190.12875 L238.305,190.12875 Z M145.145,151.8275 L140.1425,153.39125 C137.01375,154.33125 136.86125,155.265 136.70375,158.86125 C136.5475,163.08625 136.5475,171.36875 136.5475,179.6575 L136.5475,268.61125 L134.04875,268.61125 C124.51125,268.61125 112.785,267.3575 100.74875,263.29375 L100.74875,257.9775 L106.37625,256.57 C109.34625,255.78875 110.43875,254.53875 110.59625,250.94375 C110.75375,247.3475 110.75375,238.5925 110.75375,230.93375 L110.75375,179.6575 C110.75375,171.36875 110.75375,163.08625 110.59625,158.86125 C110.43875,155.265 110.28625,154.33125 107.315,153.39125 L102.155,151.8275 L102.155,145.7325 L145.145,145.7325 L145.145,151.8275 L145.145,151.8275 Z M94.69875,175.27875 L86.72625,175.27875 C84.385,168.865 83.13,165.585 80.78375,161.2075 C78.285,156.52 77.03625,155.7375 60.775,155.7375 C53.11625,155.7375 47.49,156.3625 44.046375,157.14375 L44.046375,198.57375 C52.17625,198.41625 62.02875,198.26 64.685,197.945 C67.81375,197.635 68.28125,197.01 69.0625,194.19625 C70.3125,189.66125 70.77875,188.255 71.56125,184.50125 L78.4425,184.50125 L78.4425,219.675 L71.56125,219.675 C70.47,214.9875 70.0025,213.73875 69.0625,210.4525 C68.4375,208.42125 67.49875,208.26375 64.685,207.95375 C61.55625,207.48625 51.8675,207.325 44.046375,207.1725 L44.046375,247.19 C72.96875,247.19 74.5325,245.78375 75.78625,240.31375 C76.72125,236.40375 77.03625,234.22 78.1275,228.9025 L85.63375,228.9025 C86.41625,239.375 86.57375,249.06875 86.10125,256.7275 L0.117625,256.7275 L0.117625,250.00375 L4.652875,249.06875 C14.347125,247.0375 15.4395,247.0375 15.596625,243.595 C15.753875,239.99875 15.753875,233.4325 15.753875,225.93125 L15.753875,176.52875 C15.753875,169.0275 15.753875,162.45625 15.596625,158.86125 C15.4395,155.4225 14.972125,155.265 6.21675,153.39125 L1.681625,152.45625 L1.681625,145.7325 L90.47875,145.7325 C90.47875,145.7325 94.23125,160.74 94.69875,175.27875 L94.69875,175.27875 Z" id="path26"></path>
                </g>
            </g>
        </g>
    </g>
</svg>