<?xml version="1.0" encoding="UTF-8" standalone="no"?>
<svg
   xmlns:dc="http://purl.org/dc/elements/1.1/"
   xmlns:cc="http://creativecommons.org/ns#"
   xmlns:rdf="http://www.w3.org/1999/02/22-rdf-syntax-ns#"
   xmlns:svg="http://www.w3.org/2000/svg"
   xmlns="http://www.w3.org/2000/svg"
   viewBox="0 0 625 625"
   height="625"
   width="625"
   xml:space="preserve"
   version="1.1"
   id="svg2"><metadata
     id="metadata8"><rdf:RDF><cc:Work
         rdf:about=""><dc:format>image/svg+xml</dc:format><dc:type
           rdf:resource="http://purl.org/dc/dcmitype/StillImage" /></cc:Work></rdf:RDF></metadata><defs
     id="defs6" /><g
     transform="matrix(1.25,0,0,-1.25,0,625)"
     id="g10"><g
       transform="scale(0.1,0.1)"
       id="g12"><path
         id="path14"
         style="fill:#100f0d;fill-opacity:1;fill-rule:nonzero;stroke:none"
         d="m 4170.03,1885.46 c -43.79,0 -96.29,9.99 -131.31,36.28 -57.53,42.5 -88.81,108.8 -95.07,191.31 l 367.69,0 c 25.02,198.88 -85.04,303.94 -246.37,303.94 -96.29,0 -173.85,-31.24 -233.85,-93.81 -50.06,-53.79 -85.08,-135.05 -85.08,-221.38 0,-188.84 108.8,-347.65 320.19,-347.65 112.54,0 197.61,47.53 253.88,122.57 l 8.74,46.24 c -52.5,-22.51 -106.29,-37.5 -158.82,-37.5 m -182.58,432.72 c 13.73,13.78 31.24,20.03 46.24,20.03 52.53,0 97.54,-45.05 93.81,-140.08 l -183.85,-15.03 c 1.26,60.04 16.26,107.58 43.8,135.08" /><path
         id="path16"
         style="fill:#100f0d;fill-opacity:1;fill-rule:nonzero;stroke:none"
         d="m 3708.05,1980.51 c 0,53.76 -12.51,128.83 -161.33,186.36 l -38.76,14.99 c -96.33,37.5 -122.57,62.53 -122.57,103.81 0,32.5 28.76,60.05 88.81,60.05 31.24,0 57.53,-5.04 80.04,-20.03 21.25,-14.99 33.76,-46.28 43.75,-83.82 l 11.26,-42.49 51.27,0 c 5,68.78 7.52,137.56 -3.74,202.61 -68.78,1.25 -110.06,12.51 -170.11,12.51 -180.1,0 -268.87,-103.8 -268.87,-218.86 0,-66.31 30.02,-142.61 147.56,-188.88 l 40.02,-14.99 c 105.06,-40.02 126.35,-66.27 126.35,-98.81 0,-31.24 -27.55,-60.01 -90.07,-60.01 -55.01,0 -91.29,6.26 -115.06,21.25 -25.03,14.99 -35.02,32.51 -42.54,67.53 l -12.47,58.78 -53.79,0 c -10,-68.78 -8.78,-140.08 0,-206.34 66.26,-7.52 155.08,-18.77 216.34,-18.77 210.13,0 273.91,136.3 273.91,225.11" /><path
         id="path18"
         style="fill:#100f0d;fill-opacity:1;fill-rule:nonzero;stroke:none"
         d="m 3082.72,2035.54 0,162.59 c 0,135.05 -80.03,217.6 -240.11,217.6 -101.32,0 -187.61,-25.02 -237.63,-65 -33.76,-26.29 -47.53,-53.79 -47.53,-90.07 0,-23.77 9.99,-60.05 35.02,-91.33 106.32,105.1 162.59,130.09 211.35,130.09 51.27,0 78.81,-38.76 78.81,-140.05 l 0,-31.28 C 2655,2099.33 2541.2,2015.51 2541.2,1906.71 c 0,-87.51 71.26,-153.82 175.06,-153.82 88.82,0 152.6,48.76 178.85,96.29 22.5,-57.53 80.07,-93.77 137.6,-93.77 47.5,0 97.55,18.73 135.05,45.02 l 17.51,36.24 c -116.32,20.03 -102.55,80.04 -102.55,198.87 M 2882.63,1884.2 c -12.51,-8.73 -31.28,-16.25 -55.05,-16.25 -55.01,0 -102.54,35.02 -102.54,81.3 0,45.01 41.28,87.55 157.59,101.28 l 0,-166.33" /><path
         id="path20"
         style="fill:#100f0d;fill-opacity:1;fill-rule:nonzero;stroke:none"
         d="m 2350.33,1884.2 c -43.79,0 -96.28,10 -131.31,36.28 -57.52,42.5 -88.81,108.8 -95.06,191.32 l 367.68,0 c 25.02,198.87 -85.04,303.93 -246.37,303.93 -96.29,0 -173.84,-31.28 -233.85,-93.8 -50.06,-53.8 -85.08,-135.05 -85.08,-221.38 0,-188.84 108.8,-347.66 320.19,-347.66 112.54,0 197.61,47.54 253.88,122.58 l 8.74,46.23 c -52.49,-22.51 -106.28,-37.5 -158.82,-37.5 m -182.58,432.73 c 13.74,13.77 31.25,20.03 46.24,20.03 52.53,0 97.58,-45.06 93.81,-140.09 l -183.84,-15.03 c 1.26,60.05 16.25,107.58 43.79,135.09" /><path
         id="path22"
         style="fill:#100f0d;fill-opacity:1;fill-rule:nonzero;stroke:none"
         d="m 1922.74,2323.2 c 0,62.52 -36.28,92.55 -77.56,92.55 -52.49,0 -107.54,-32.55 -146.3,-153.86 l 0,145.08 -15.03,0 c -76.26,0 -168.81,-9.99 -266.36,-43.76 l 0,-42.53 45.01,-11.26 c 23.77,-6.25 32.51,-16.25 33.77,-43.75 1.26,-30.03 1.26,-100.07 1.26,-161.33 l 0,-75.08 c 0,-65.01 0,-123.8 -1.26,-158.82 -1.26,-27.5 -2.52,-35.02 -26.29,-42.5 l -41.24,-13.77 0,-47.53 355.17,0 0,48.79 -51.27,13.73 c -23.77,6.26 -25.03,13.78 -26.29,41.28 -1.22,35.02 -1.22,93.81 -1.22,158.82 l 0,196.35 c 16.25,10.03 36.28,15.03 62.53,15.03 28.76,0 72.52,-11.25 117.58,-35.02 22.5,37.5 37.5,83.81 37.5,117.58" /><path
         id="path24"
         style="fill:#100f0d;fill-opacity:1;fill-rule:nonzero;stroke:none"
         d="m 1372.46,2380.73 -200.09,0 c -43.8,24.98 -102.58,37.5 -166.33,37.5 -162.591,0 -282.685,-97.55 -282.685,-247.63 0,-110.06 77.555,-187.58 177.622,-216.34 -77.559,-22.51 -130.09,-78.82 -130.09,-140.09 0,-46.27 22.508,-76.3 57.531,-96.29 -110.063,-17.51 -166.332,-77.55 -166.332,-141.34 0,-117.57 135.086,-157.59 253.883,-157.59 255.141,0 432.721,167.59 432.721,286.42 0,75.04 -45.01,146.34 -183.84,151.34 l -138.82,5 c -40.018,2.48 -112.542,4.99 -112.542,50.01 0,11.25 6.219,28.76 14.992,35.02 18.774,-3.74 38.762,-5 60.008,-5 178.882,0 293.942,87.52 293.942,242.63 0,28.77 -10.03,68.78 -35.02,113.8 l 118.79,-2.48 6.26,85.04 z m -395.187,-699.13 116.277,-4.99 c 92.55,-3.78 107.58,-36.28 107.58,-57.53 0,-45.02 -70.04,-106.32 -205.122,-106.32 -120.059,0 -198.836,37.54 -198.836,103.8 0,27.5 13.734,57.53 68.785,83.81 33.762,-11.25 72.52,-16.25 111.316,-18.77 m 24.987,333.92 c -55.006,0 -91.287,53.79 -91.287,168.85 0,101.29 32.5,160.08 88.769,160.08 51.318,0 95.068,-52.54 95.068,-173.85 0,-90.03 -37.5,-155.08 -92.55,-155.08" /><path
         id="path26"
         style="fill:#100f0d;fill-opacity:1;fill-rule:nonzero;stroke:none"
         d="m 4355.51,3165.41 0,56.27 -291.39,0 0,-50.02 66.27,-19.99 c 35.02,-10.03 38.76,-26.28 31.28,-55.05 l -83.81,-327.7 -192.58,455.28 -76.3,0 -140.08,-455.28 -122.58,346.47 c -8.73,25.03 -8.73,36.28 26.29,43.76 l 33.76,7.52 0,55.01 -345.17,0 0,-56.27 21.25,-5 c 22.5,-6.26 25.02,-16.25 33.76,-37.5 l 188.84,-461.53 c 22.5,-56.27 25.02,-70.04 33.76,-98.81 93.81,26.29 137.6,45.06 168.85,123.84 l 97.54,240.15 112.58,-268.92 c 21.25,-52.53 25.03,-68.78 30.03,-95.07 87.55,15.04 138.82,41.28 166.33,108.85 l 168.84,433.98 c 17.51,43.76 27.51,48.75 47.5,53.75 l 25.03,6.26 z M 3074.09,2881.5 c 0,-122.53 -40.02,-212.6 -111.32,-212.6 -87.51,0 -131.31,111.32 -131.31,248.88 0,103.81 19.99,217.64 112.54,217.64 40.06,0 73.82,-20.03 97.59,-67.56 19.99,-38.76 32.5,-96.29 32.5,-186.36 m 216.38,37.54 c 0,62.53 -16.29,127.57 -46.27,176.33 -55.05,90.07 -145.08,137.56 -271.39,137.56 -81.3,0 -152.6,-19.99 -207.61,-56.27 -97.59,-65 -150.08,-160.07 -150.08,-291.38 0,-187.62 120.05,-313.93 333.92,-313.93 191.36,0 341.43,126.31 341.43,347.69 m -954.38,-31.28 c 0,-86.3 -17.55,-152.6 -55.05,-185.1 -17.51,-16.25 -45.01,-30.03 -82.51,-30.03 -27.55,0 -63.83,6.26 -100.07,20.03 5,18.77 7.48,48.76 7.48,91.29 l 0,296.42 c 21.29,15 50.05,23.77 82.55,23.77 87.56,0 147.6,-82.55 147.6,-216.38 m 216.35,51.27 c 0,160.11 -105.07,293.9 -255.11,293.9 -75.07,0 -151.33,-33.76 -191.39,-105.02 l 0,438.98 -19.99,0 c -76.3,0 -170.11,-10.03 -266.4,-42.54 l 0,-42.53 43.76,-11.26 c 25.03,-6.25 33.76,-16.25 35.02,-45.01 1.26,-28.77 1.26,-98.81 1.26,-160.08 l 0,-534.05 c 0,-92.55 -13.73,-131.31 -13.73,-131.31 72.52,-17.51 185.06,-31.28 267.61,-31.28 118.84,0 201.39,25.03 263.88,70.04 83.81,61.31 135.09,171.37 135.09,300.16 m -745.28,-306.41 -40.02,12.51 c -25.03,7.52 -26.25,14.99 -27.51,43.76 -1.25,33.8 -1.25,100.06 -1.25,166.37 l 0,711.63 -19.99,0 c -76.3,0 -170.11,-10.03 -266.4,-42.54 l 0,-42.53 45.02,-11.26 c 23.76,-6.25 32.5,-16.25 33.76,-45.01 1.26,-28.77 1.26,-98.81 1.26,-160.08 l 0,-410.21 c 0,-66.31 0,-132.57 -1.26,-166.37 -1.26,-28.77 -2.48,-36.24 -26.25,-43.76 l -41.28,-12.51 0,-48.76 343.92,0 0,48.76 z m -403.57,187.61 -63.78,0 c -18.73,-51.31 -28.77,-77.55 -47.54,-112.57 -19.99,-37.5 -29.98,-43.76 -160.07,-43.76 -61.27,0 -106.28,5 -133.829,11.25 l 0,331.44 c 65.039,-1.26 143.859,-2.51 165.109,-5.03 25.03,-2.48 28.77,-7.48 35.02,-29.99 10,-36.28 13.73,-47.53 19.99,-77.56 l 55.05,0 0,281.39 -55.05,0 c -8.73,-37.5 -12.47,-47.49 -19.99,-73.78 -5,-16.25 -12.51,-17.51 -35.02,-19.99 -25.03,-3.74 -102.54,-5.03 -165.109,-6.25 l 0,320.14 c 231.379,0 243.889,-11.25 253.919,-55.01 7.48,-31.28 10,-48.75 18.73,-91.29 l 60.05,0 c 6.26,83.78 7.52,161.33 3.74,222.6 l -687.869,0 0,-53.79 36.282,-7.48 c 77.554,-16.25 86.293,-16.25 87.55,-43.79 1.258,-28.77 1.258,-81.3 1.258,-141.31 l 0,-395.22 c 0,-60.01 0,-112.58 -1.258,-141.34 -1.257,-27.51 -4.996,-28.77 -75.039,-43.76 l -36.281,-7.48 0,-53.79 710.377,0 c 0,0 30.02,120.06 33.76,236.37" /></g></g></svg>