<?xml version="1.0" encoding="utf-8"?>
<!-- Generator: Adobe Illustrator 21.1.0, SVG Export Plug-In . SVG Version: 6.00 Build 0)  -->
<svg version="1.1" id="Layer_1" xmlns="http://www.w3.org/2000/svg" xmlns:xlink="http://www.w3.org/1999/xlink" x="0px" y="0px"
	 viewBox="0 0 758.1 345.1" style="enable-background:new 0 0 758.1 345.1;" xml:space="preserve">
<style type="text/css">
	.st0{fill:#939598;}
</style>
<title>logo_extract_modified</title>
<desc>Created with Sketch.</desc>
<g id="Top" transform="translate(3.829787, 0.063063)">
	<path id="Fill-1" class="st0" d="M18.4,195.9c0,0,2.4,53.3,0.7,82.6c-1.3,22.3-23,18.2-23,18.2v48.4h182.8v-97.8H127
		c0,0,0,44.4-23,47.4c-23,3-30,0-30,0v-94.8c0,0,12.6-1.5,17.9,0.3c5.4,1.8,15.6,9.5,16.1,14.9l0.5,5.4h43.8V128h-43.8
		c0,0,0,0-0.5,5.4c-0.4,5.4-10.7,13.1-16.1,14.9c-5.4,1.8-17.9,0.3-17.9,0.3V53.8c0,0,7-3,30,0c23,3,23,47.4,23,47.4h51.9V3.3H-3.8
		v48.4c0,0,21.6-4.1,23,18.2c1.7,29.2-0.7,82.6-0.7,82.6s-1.5,18.4-15.4,21.1l-2.7,0.6l2.7,0.6C16.9,177.5,18.4,195.9,18.4,195.9z"
		/>
	<path id="Fill-2" class="st0" d="M624.9,2.4v19.7h18.4v77.7h26.2V22.1h17.9V2.4H624.9z M496.7,2.4l-17.3,97.4h23.2l1.9-12.8h12.5
		l1.3,12.8h27L528,2.4H496.7z M411.6,2.4v97.4h26.2V62.3h6c3.7,0,5.5,2.9,5.5,5.1v17.3c0,5.1,1.3,10.8,3.3,15.1h24.6
		c-1.7-4.7-3.4-10.1-3.4-16.3V65.3c0-4.6-3.9-10.1-10.6-12.7c6.7-2.6,10.1-7.9,10.1-12.5V22.6c0-12.3-11.8-20.2-24.5-20.2H411.6z
		 M620.6,245.2v97.4h26.2v-37.5h6c3.7,0,5.5,2.9,5.5,5.1v17.3c0,5.1,1.3,10.8,3.3,15.1h24.6c-1.7-4.7-3.4-10.1-3.4-16.3v-18.1
		c0-4.6-3.9-10.1-10.6-12.7c6.7-2.6,10.1-7.9,10.1-12.5v-17.5c0-12.3-11.8-20.2-24.5-20.2H620.6z M340.6,2.4v19.7H359v77.7h26.2
		V22.1H403V2.4H340.6z M309.9,2.4l-9.5,25.7L292,2.4h-26.9L284.7,51l-21.1,48.8h25.7l9.9-25.7l8.6,25.7h27l-20.1-51.3l20.8-46.1
		H309.9z M206.7,2.4v97.4h51.5V79.3h-25.3V59.1h16.7V40.6h-16.7V21.5h25.3V2.4H206.7z M281.2,145.5v54.1c0,13.3,13.8,24.1,32.2,24.1
		c18.5,0,32.2-10.8,32.2-24.1v-54.1c0-13.3-13.8-24.1-32.2-24.1C295,121.4,281.2,132.2,281.2,145.5z M206,144.2v56.5
		c0,10,13.5,22.9,33.2,22.9c19.8,0,32.6-12.9,32.6-22.9v-16.2h-26.7V198c0,2.6-2.8,4.1-6,4.1c-3.2,0-5.8-1.6-5.8-4.1V147
		c0-2.6,2.7-4.1,5.8-4.1c3.2,0,6,1.6,6,4.1v13.4h26.7v-16.2c0-10-12.8-22.9-32.6-22.9C219.5,121.4,206,134.3,206,144.2z
		 M537.5,123.8v97.4h51.5v-20.5h-25.3v-20.2h16.7V162h-16.7v-19.1h25.3v-19.1H537.5z M476.1,123.8v97.4h51.5v-20.5h-25.3v-20.2H519
		V162h-16.7v-19.1h25.3v-19.1H476.1z M416.1,123.8v97.4h26.2v-38.7h18.9v-19.2h-18.9v-20.3h25.3v-19.1H416.1z M356.2,123.8v97.4
		h26.2v-38.7h18.9v-19.2h-18.9v-20.3h25.3v-19.1H356.2z M691.9,269c0,11.1,5.2,22,17.5,29.7c13.8,8.6,19.8,11.7,19.8,19.7
		c0,4.1-2.3,6.3-7.3,6.3s-7.9-2.7-7.9-6.5v-8.4h-22.9v11.1c0,15.1,12,24.1,32,24.1c20.1,0,31.2-12.8,31.2-26.2
		c0-12.1-7.3-24.2-20.1-31.2c-13.9-7.5-17.3-9.1-17.3-18.9c0-3.8,3.5-5.7,6.9-5.7c3.4,0,6.2,2.2,6.2,5.6v8h22.9v-9.9
		c0-13.3-11.9-24.1-29.1-24.1C702.7,242.8,691.9,255.7,691.9,269z M420.4,269c0,11.1,5.2,22,17.5,29.7c13.8,8.6,19.8,11.7,19.8,19.7
		c0,4.1-2.3,6.3-7.3,6.3c-5,0-7.9-2.7-7.9-6.5v-8.4h-22.9v11.1c0,15.1,12,24.1,32,24.1c20.1,0,31.2-12.8,31.2-26.2
		c0-12.1-7.3-24.2-20.1-31.2c-13.9-7.5-17.3-9.1-17.3-18.9c0-3.8,3.5-5.7,6.9-5.7c3.4,0,6.2,2.2,6.2,5.6v8h22.9v-9.9
		c0-13.3-11.9-24.1-29.1-24.1C431.2,242.8,420.4,255.7,420.4,269z M278.2,266.9v54.1c0,13.3,13.8,24.1,32.2,24.1
		s32.2-10.8,32.2-24.1v-54.1c0-13.3-13.7-24.1-32.2-24.1S278.2,253.6,278.2,266.9z M559.6,245.2v97.4h51.5v-20.5h-25.3V302h16.7
		v-18.5h-16.7v-19.1h25.3v-19.1H559.6z M488.5,245.2v19.7h18.4v77.7h26.2v-77.7H551v-19.7H488.5z M366,245.2l-17.3,97.4H372
		l1.9-12.8h12.5l1.3,12.8h27l-17.5-97.4H366z M206.7,245.2v97.4h26.2v-37.5h6c3.7,0,5.5,2.9,5.5,5.1v17.3c0,5.1,1.3,10.8,3.3,15.1
		h24.6c-1.7-4.8-3.4-10.1-3.4-16.3v-18.1c0-4.6-3.9-10.1-10.6-12.7c6.7-2.6,10.1-7.9,10.1-12.5v-17.5c0-12.3-11.8-20.2-24.5-20.2
		H206.7z M376.8,308.9l4-30.8l3.4,30.8H376.8L376.8,308.9z M232.9,286.6v-21.7h6.3c2.9,0,4.5,1.1,4.5,3.9v13.9
		c0,2.8-1.6,3.9-4.5,3.9H232.9L232.9,286.6z M647.1,286.6v-21.7h6.3c2.9,0,4.5,1.1,4.5,3.9v13.9c0,2.8-1.6,3.9-4.5,3.9H647.1
		L647.1,286.6z M310.4,323.5c-3,0-5.5-1.6-5.5-4.1v-50.9c0-2.6,2.4-4.1,5.5-4.1c3,0,5.5,1.6,5.5,4.1v50.9
		C315.9,321.9,313.4,323.5,310.4,323.5L310.4,323.5z M313.4,202.1c-3,0-5.5-1.6-5.5-4.1V147c0-2.6,2.4-4.1,5.5-4.1
		c3,0,5.5,1.6,5.5,4.1V198C318.9,200.5,316.5,202.1,313.4,202.1L313.4,202.1z M507.5,66.1l4-30.8l3.4,30.8H507.5L507.5,66.1z
		 M437.8,43.8V22.1h6.3c2.9,0,4.5,1.1,4.5,3.9v13.9c0,2.8-1.6,3.9-4.5,3.9H437.8L437.8,43.8z M551.6,22.8v56.5
		c0,10,13.5,22.9,33.2,22.9c19.8,0,32.6-12.9,32.6-22.9V63.1h-26.6v13.4c0,2.6-2.8,4.1-6,4.1c-3.2,0-5.8-1.6-5.8-4.1V25.6
		c0-2.6,2.7-4.1,5.8-4.1c3.2,0,6,1.6,6,4.1V39h26.6V22.8c0-10-12.8-22.9-32.6-22.9C565.1-0.1,551.6,12.8,551.6,22.8z"/>
</g>
</svg>
