<?xml version="1.0" encoding="utf-8"?>
<!-- Generator: Adobe Illustrator 21.1.0, SVG Export Plug-In . SVG Version: 6.00 Build 0)  -->
<svg version="1.1" id="Layer_1" xmlns="http://www.w3.org/2000/svg" xmlns:xlink="http://www.w3.org/1999/xlink" x="0px" y="0px"
	 viewBox="0 0 876.1 159.2" style="enable-background:new 0 0 876.1 159.2;" xml:space="preserve">
<style type="text/css">
	.st0{fill:#939598;}
</style>
<title>Artboard 1</title>
<path class="st0" d="M54.7,6.2c23.9,0,42.6,11.4,42.6,33.4S78.6,74.2,55.2,74.2H38.4v24.9c0,8.5,7.6,11.5,15.8,12.8
	c1.1,0,2,0.9,1.9,2c0,0.1,0,0.2,0,0.4l-0.3,4c-0.1,1.1-1.1,2-2.2,1.9H2.6c-1.1,0.1-2.1-0.8-2.2-1.9l-0.4-4c-0.2-1.1,0.5-2.1,1.5-2.3
	c0.1,0,0.2,0,0.4,0c8-1.2,14.4-4.3,14.4-12.8l-0.2-71.7c0-8.5-4.3-11.5-12.6-12.8c-1.1,0-2-0.9-2-2c0-0.2,0-0.3,0.1-0.5l0.3-4
	c0.2-1.1,1.2-2,2.4-1.9H54.7z M47.2,14.7c-5.1-0.6-9.7,3-10.4,8.1c-0.1,0.5-0.1,0.9-0.1,1.4v39.6H51c14.7,0,25.5-8,25.5-24.1
	c0.3-13.5-10.5-24.6-24-24.9c-0.4,0-0.9,0-1.3,0L47.2,14.7z"/>
<path class="st0" d="M107.7,62.5l-1.7-3.8c-0.4-1.1,0-2.3,1-2.9c9.5-5.9,20.5-9,31.7-8.9c10.7,0,16.5,4.9,16.5,15.5l-0.5,39.7
	c-0.2,2.7,1.9,5,4.6,5.2c0.2,0,0.4,0,0.7,0c3,0,5.9-0.8,8.5-2.2c1.1-0.6,2.5-0.3,2.7,1l0.6,4.4c0.2,1.2-0.2,2.5-1.1,3.3
	c-5.2,4.7-11.9,7.4-18.8,7.4c-6.7,0.3-12.8-4.2-14.4-10.7c-6.4,6.9-15.2,10.9-24.6,11.2c-9.1,0.4-16.8-6.6-17.2-15.7
	c0-0.5,0-1,0-1.5c0-11.1,10.1-18.4,22.3-22.9c5.7-2.2,12.7-4.4,17.7-5.9V64.9c0.4-3.2-1.9-6.1-5.1-6.5c-0.5-0.1-0.9-0.1-1.4,0
	c-6.4,0.1-12.7,1.8-18.4,4.9C109.7,64,108.3,63.6,107.7,62.5C107.7,62.6,107.7,62.6,107.7,62.5z M136.2,83.1
	c-5.3,1.8-10.4,4.1-15.2,7c-4.2,1.9-7,5.9-7.4,10.5c-0.2,4,2.8,7.4,6.8,7.6c0.3,0,0.7,0,1,0c5.6-0.4,10.9-2.9,14.7-7L136.2,83.1z"/>
<path class="st0" d="M200,62.5c4.9-10,15-16.4,26.1-16.6c19.5,0,31.8,17.1,31.8,39.2c0,23.7-13.9,37.5-34,37.5c-8.1-0.2-16-3-22.3-8
	l0.5,24.1c0,8.5,4.6,11.5,12.8,12.8c1.1,0,2,0.9,1.9,2c0,0.1,0,0.2,0,0.4l-0.3,3.3c-0.1,1.1-1.1,2-2.2,1.9H172
	c-1.1,0.1-2.1-0.8-2.2-1.9l-0.3-3.3c-0.2-1.1,0.5-2.1,1.5-2.3c0.1,0,0.2,0,0.4,0c8-1.2,11.4-4.3,11.4-12.8V76.2
	c0.2-5.4-3.8-9.9-9.2-10.5c-1.4-0.3-2.1-1-2.1-2.2v-3.3c-0.1-1.1,0.5-2.1,1.6-2.4c8.8-2.6,17.2-6.3,25-11.1c1-0.7,2.1-1.1,3.3-1.1
	c0.8-0.1,1.5,0.5,1.6,1.3c0,0.1,0,0.3,0,0.4L200,62.5z M231.8,110.5c9.2-3.5,13.1-16.3,6.8-31.3C232,63.5,219.2,59,209.5,63.5
	c-9.7,4.5-11.5,16.6-5.1,32C210.3,109.2,222.5,114,231.8,110.5z"/>
<path class="st0" d="M266.9,84.5c0-21.9,14.7-38.8,35.6-38.8c12.4-0.3,23.2,8.4,25.5,20.6c0.2,0.8,0.3,1.7,0.3,2.5V71
	c0.1,1.1-0.6,2-1.6,2.4l-41,15.6c2.8,10.7,12.8,17.8,23.7,17.1c7.4-0.3,14.3-3.8,19-9.5c0.8-1.1,2.2-1.4,3.3-0.6l2.2,1.6
	c0.9,0.7,1.2,2,0.6,3c-5.1,13.1-17.6,21.8-31.7,22C281.5,122.8,266.9,105,266.9,84.5z M309.1,69.9c1.4-8-2.7-14.7-10.9-14.7
	c-12.1,0-17.1,12.7-13.4,25.8L309.1,69.9z"/>
<path class="st0" d="M390.4,48.6c5.4-0.5,10.2,3.5,10.7,8.9c0,0.5,0.1,0.9,0,1.4c0.1,3.5-1.6,6.9-4.4,9l-7.1,5.4
	c-0.8,0.5-1.8,0.3-2.3-0.4c-0.1-0.1-0.1-0.2-0.2-0.4c-0.8-3.2-3.7-5.5-7-5.6c-4,0-8.4,3.3-11.9,11.5v21.4c0,9.2,4.3,11.5,12.5,12.8
	c1.1,0,2,0.9,1.9,2c0,0.1,0,0.2,0,0.4l-0.3,3.3c-0.1,1.1-1.1,2-2.2,1.9h-40.2c-1.1,0.1-2.1-0.8-2.2-1.9l-0.3-3.3
	c-0.2-1.1,0.5-2.1,1.5-2.3c0.1,0,0.2,0,0.4,0c8-1.2,10.6-4.3,10.6-12.8V76c0.2-5.4-3.8-9.9-9.2-10.5c-1.4-0.3-2.1-1-2.1-2.2V60
	c-0.1-1.1,0.6-2,1.6-2.4c10.4-3.8,20.1-9.1,28.8-15.8c0.8-0.8,1.9-1.2,3-1.2c0.8-0.1,1.5,0.6,1.5,1.4c0,0.2,0,0.5-0.1,0.7
	c-4.5,10.4-8,21.2-10.6,32.2C369.7,61.6,381.7,48.6,390.4,48.6z"/>
<path class="st0" d="M409.5,120.3c-1,0.2-1.9-0.5-2-1.5c0-0.1,0-0.2,0-0.3l-0.3-20.7c0-1.2,0.9-2.2,2.1-2.2c0,0,0.1,0,0.1,0h2.7
	c1.2,0,2.3,0.7,2.9,1.7c4.6,6.6,13.4,16.1,25.5,16.1c6,0,10.5-2.9,10.5-7.3c0-4.4-4-7.1-11.2-10.7c-5.1-2.5-11.7-6.3-16.5-9.3
	c-9-5.7-14.4-12.5-14.4-20.9c0-12.1,9.5-19,22.8-19c8,0,15.1,4,19.2,4c3.3,0,4-1.9,6.5-1.9h2.2c0.9-0.1,1.6,0.5,1.7,1.4
	c0,0.1,0,0.2,0,0.3l0.3,18.5c0.1,1.1-0.8,2.1-1.9,2.2c-0.1,0-0.1,0-0.2,0h-2.5c-1.2-0.1-2.3-0.8-2.9-1.9
	c-2.5-3.5-10.5-14.9-21.5-14.9c-3.8-0.4-7.3,2.3-7.7,6.1c0,0.1,0,0.2,0,0.2c0,4.4,4,7.4,9.5,10.7c5.5,3.3,11.9,7,17.4,9.8
	c8,4.3,15.4,10.6,15.4,20.1c0,13-10.9,20.9-25.3,20.9c-6.3,0-15.4-1.4-19.8-1.7C417.8,119.8,413.7,119.9,409.5,120.3z"/>
<path class="st0" d="M565.5,118.4l-0.3-3.3c-0.2-1.3,0.5-2.1,1.9-2.4c7.4-1.2,9.5-4.3,9.5-12.8V70.3c0.5-4.4-2.6-8.4-7-9
	c-0.4-0.1-0.9-0.1-1.4-0.1c-5.7,0-13.1,4.4-19,12.4v28.2c0,7,1.9,9.8,7.8,11.1c1.4,0.3,2.1,1.1,1.9,2.4l-0.3,3.3
	c-0.1,1.1-1.1,2-2.2,1.9h-32c-1.1,0.1-2.1-0.8-2.2-1.9l-0.3-3.3c-0.2-1.3,0.5-2.1,1.9-2.4c5.1-1.2,7.1-4,7.1-11.1V70.6
	c0.5-4.6-2.8-8.8-7.4-9.3c-0.3,0-0.6-0.1-0.9-0.1c-5.7,0-12.5,4.3-18.4,12.4v26.3c0,8.5,2.1,11.5,9.5,12.8c1.4,0.3,2.1,1.1,1.9,2.4
	l-0.3,3.3c-0.1,1.1-1.1,2-2.2,1.9h-37.3c-1.1,0.1-2.1-0.8-2.2-1.9l-0.3-3.3c-0.2-1.1,0.4-2.1,1.5-2.4c0.1,0,0.2,0,0.4,0
	c8-1.2,10.6-4.3,10.6-12.8V75.9c0.2-5.4-3.8-9.9-9.2-10.5c-1.4-0.3-2.1-1-2.1-2.2v-3.3c-0.1-1.1,0.5-2.1,1.6-2.4
	c9.1-2.6,17.8-6.3,26-11.1c1-0.7,2.2-1.1,3.5-1.1c0.8,0,1.4,0.5,1.5,1.3c0,0.2,0,0.3,0,0.5l-3.5,16.1c7.4-8,15.8-15.2,27.5-15.2
	c8.8-0.4,16.6,5.7,18.2,14.4C556.4,54.6,565,48,576.5,48c12.4,0,19.6,9.7,19.6,21.5v30.2c0,8.5,2.1,11.5,10.3,12.8
	c1.1,0,2,0.9,1.9,2c0,0.1,0,0.2,0,0.4l-0.3,3.3c-0.1,1.1-1.1,2-2.2,1.9h-38C566.7,120.3,565.6,119.5,565.5,118.4z"/>
<path class="st0" d="M643.4,46.1c0.7-0.7,1.6-1.2,2.5-1.2c0.7-0.1,1.3,0.5,1.4,1.2c0,0,0,0.1,0,0.1v53.8c0,8.5,3,11.5,11.2,12.8
	c1.1,0,2,0.9,1.9,2c0,0.1,0,0.2,0,0.4l-0.3,3.3c-0.1,1.1-1.1,2-2.2,1.9h-40.6c-1.1,0.1-2.1-0.8-2.2-1.9l-0.3-3.3
	c-0.2-1.1,0.5-2.1,1.5-2.3c0.1,0,0.2,0,0.4,0c8-1.2,12.1-4.3,12.1-12.8v-22c-0.1-5.4-4.3-9.9-9.7-10.3c-1.4-0.3-2.1-1-2.1-2.2V63
	c-0.1-1.1,0.5-2.1,1.6-2.5C627.6,57.1,636,52.2,643.4,46.1z M640.2,5.8c2.7,2.5,6.6,6.5,9,9c1.9,1.8,2.1,4.7,0.3,6.7
	c-0.1,0.1-0.2,0.2-0.3,0.3c-2.8,3.2-5.9,6.3-9.2,9c-1.8,2-4.9,2.1-6.9,0.2c-0.1-0.1-0.2-0.2-0.2-0.2c-3.1-2.8-6.1-5.9-8.9-9
	c-2-1.8-2.1-4.9-0.2-6.9c0.1-0.1,0.2-0.2,0.2-0.2c2.8-3.2,5.9-6.2,9-9c1.8-2,4.9-2,6.9-0.2c0.1,0.1,0.2,0.2,0.2,0.2V5.8z"/>
<path class="st0" d="M710.7,48.3c0.9-0.1,1.7,0.6,1.8,1.6c0,0.2,0,0.4-0.1,0.7l-1.2,5.8c-0.2,1.2-1.3,2-2.5,1.9h-15.5h-2.7v44.3
	c0,4.3,1.9,6.5,5.7,6.5c4.3-0.9,8.2-3.1,11.2-6.2c0.7-0.9,2-1,2.9-0.2c0.2,0.2,0.3,0.3,0.4,0.5l2.9,4c0.7,1,0.5,2.4-0.5,3.2
	c-6.8,6.2-16.6,12.5-25.2,12.5c-8.4,0.8-15.9-5.5-16.6-13.9c-0.1-1-0.1-2,0-3.1V67.3c0-5.6-2.5-7.6-7.4-8.9
	c-1.2-0.2-2.1-1.2-2.2-2.4l-0.8-4.9c-0.2-1.2,0.4-2.4,1.4-3c10-6.5,18.1-15.5,23.7-26c0.6-1.1,1.8-1.8,3-1.7h5.2
	c0.9-0.1,1.7,0.6,1.8,1.5c0,0.3,0,0.5-0.1,0.8l-5.7,25.6H710.7z"/>
<path class="st0" d="M749.5,99.9c0,8.5,1.2,11.5,9.5,12.8c1.1,0,2,0.9,1.9,2c0,0.1,0,0.2,0,0.4l-0.3,3.3c-0.1,1.1-1.1,2-2.2,1.9H721
	c-1.1,0.1-2.1-0.8-2.2-1.9l-0.3-3.3c-0.2-1.1,0.4-2.1,1.5-2.4c0.1,0,0.3,0,0.4-0.1c8-1.2,10.6-4.3,10.6-12.8V33
	c0.2-5.4-3.8-9.9-9.2-10.5c-1.4-0.3-2.1-1-2.1-2.2v-3.1c-0.1-1.1,0.5-2.1,1.6-2.5c7.9-3,15.2-7.6,21.4-13.5c0.8-0.9,1.9-1.3,3-1.2
	h2.8c1.1,0,1.9,1,1.9,2c0,0,0,0,0,0l-0.8,61.1c7.4-8,15.4-15.1,27.1-15.1c12.4,0,19.6,9.7,19.6,21.5v30.2c0,8.5,2.1,11.5,10.3,12.8
	c1.1,0,2,0.9,1.9,2c0,0.1,0,0.2,0,0.4l-0.3,3.3c-0.1,1.1-1.1,2-2.2,1.9h-38.1c-1.1,0.1-2.1-0.8-2.2-1.9l-0.3-3.3
	c-0.2-1.1,0.5-2.1,1.5-2.3c0.1,0,0.2,0,0.4,0c8-1.2,9.7-4.3,9.7-12.8V70.3c0.5-4.4-2.6-8.4-7-9c-0.4-0.1-0.9-0.1-1.4-0.1
	c-5.7,0-13,4-18.8,12.1L749.5,99.9z"/>
<path class="st0" d="M818.6,120.3c-1,0.2-1.9-0.5-2-1.5c0-0.1,0-0.2,0-0.3l-0.3-20.7c0-1.2,0.9-2.2,2.1-2.2c0,0,0.1,0,0.1,0h2.5
	c1.2,0,2.3,0.7,2.9,1.7c4.6,6.6,13.4,16.1,25.5,16.1c6,0,10.5-2.9,10.5-7.3c0-4.4-4-7.1-11.2-10.7c-5.1-2.5-11.7-6.3-16.5-9.3
	c-9-5.7-14.4-12.5-14.4-20.9c0-12.1,9.5-19,22.8-19c8,0,15.1,4,19.2,4c3.3,0,4-1.9,6.5-1.9h2.2c0.9-0.1,1.6,0.5,1.7,1.4
	c0,0.1,0,0.2,0,0.3l0.3,18.5c0.1,1.1-0.8,2.1-1.9,2.2c-0.1,0-0.1,0-0.2,0h-2.5c-1.2-0.1-2.3-0.8-2.9-1.9
	c-2.5-3.5-10.5-14.9-21.5-14.9c-3.8-0.3-7.2,2.5-7.6,6.3c0,0,0,0,0,0.1c0,4.4,4,7.4,9.5,10.7c5.5,3.3,11.9,7,17.4,9.8
	c8,4.3,15.4,10.6,15.4,20.1c0,13-10.9,20.9-25.3,20.9c-6.3,0-15.4-1.4-19.8-1.7C826.9,119.8,822.8,119.9,818.6,120.3z"/>
</svg>
