<svg id="Layer_1" data-name="Layer 1" xmlns="http://www.w3.org/2000/svg" viewBox="0 0 337.5 443"><defs><style>.cls-1{fill:#fff;}</style></defs><title>Untitled-2</title><path class="cls-1" d="M206.08,327H93.17V443H206.08ZM337.5,118.46C337.5,59.23,294.3,21,240.63,7.4c-13.57-3.7-33.93-7.4-66-7.4-48.13,0-91.32,8-129,40.72C12.34,69.1,4.32,100,0,116.61l104.89,35.17c3.7-25.3,8-50.59,34.55-62.93a69,69,0,0,1,27.15-5.55c36.4,0,46.27,25.3,46.27,39.49,0,27.77-32.7,50-51.21,62.93-34.55,24.68-51.83,45-58.61,63.55-4.32,11.11-4.94,21.59-6.17,33.93l106.74.62c1.85-8,3.7-12.34,5.55-15.43,5.55-8.64,20.36-21,28.38-26.53,21-15.43,55.53-33.32,72.81-52.44,25.91-27.76,27.15-56.76,27.15-71"/></svg>