<svg id="Layer_1" data-name="Layer 1" xmlns="http://www.w3.org/2000/svg" xmlns:xlink="http://www.w3.org/1999/xlink" viewBox="0 0 82.13 87.98"><defs><style>.cls-1{fill:none;}.cls-2{clip-path:url(#clip-path);}.cls-3{fill:#fff;}</style><clipPath id="clip-path"><rect class="cls-1" width="82.13" height="87.98"/></clipPath></defs><title>Untitled-2</title><g class="cls-2"><path class="cls-3" d="M78.22,20.47V69.05L43,83.1V34.56l13.69-5.47V44l7.82-2.93V25.94Zm-74.31,0,35.2,14.09V83.1l-35.2-14Zm18-8.74,33,13.87L41.06,31.1,7.24,17.6ZM41.06,4.06,74.89,17.6,62.48,22.55,30.55,8.28ZM41,0a2.7,2.7,0,0,0-.67.12L1.22,15.77A2,2,0,0,0,0,17.6V70.39A2,2,0,0,0,1.22,72.2L40.33,87.84a2,2,0,0,0,1.47,0L80.91,72.2a2,2,0,0,0,1.22-1.81V17.6a2,2,0,0,0-1.22-1.83L41.8.13A1.93,1.93,0,0,0,41,0Z"/></g></svg>